<?xml version="1.0" encoding="UTF-8" standalone="no"?>
	<rect x="-100" y="-100" width="700" height="700" fill="black"/>		
<svg width="42" height="7" xmlns="http://www.w3.org/2000/svg" version="1.1">

<desc>gifspkr logo</desc>

<g id="gifspkr_icon" fill="white" fill-rule="evenodd">
	<path id="dot_fade1" fill-opacity="0.2" d="M1,4 L1,6 L3,6 L3,5 L2,5 L2,4 Z" />
	<path id="dot_fade1" fill-opacity="0.6" d="M2,3 L2,5 L4,5 L4,4 L3,4 L3,3 Z" />
	<path id="dot"       fill-opacity="1.0" d="M3,2 L3,4 L5,4 L5,2 Z" />
	<path id="border"    fill-opacity="1.0" d="M0,0 L0,7 L7,7 L7,0 Z M1,1 L1,6 L6,6 L6,1 Z" />
</g>
<g id="gifspkr" fill="white" fill-rule="evenodd" transform="translate(9,0)">
	<path id="g" d="M9,0 L0,0 L0,7 L9,7 L9,2 L6,2 L6,5 L8,5 L8,6 L1,6 L1,1 L9,1 Z M7,3 L7,4 L8,4 L8,3 Z"/>
	<path id="i" d="M10,0 L10,1 L11,1 L11,0 Z M10,2 L10,5 L11,5 L11,2 Z" />
	<path id="f" d="M12,0 L12,5 L13,5 L13,3 L14,3 L14,2 L13,2 L13,1 L21,1 L21,0 Z" />
	<path id="s" d="M15,2 L15,4 L14,4 L14,5 L16,5 L16,3 L17,3 L17,2 Z" />
	<path id="p" d="M18,2 L18,6 L10,6 L10,7 L19,7 L19,5 L21,5 L21,2 Z M19,3 L19,4 L20,4 L20,3 Z" />
	<path id="k" d="M22,0 L22,5 L23,5 L23,4 L24,4 L24,5 L25,5 L25,4 L24,4 L24,3 L25,3 L25,2 L24,2 L24,3 L23,3 L23,0 Z" />
	<path id="r" d="M26,2 L26,5 L27,5 L27,3 L28,3 L28,2 Z" />
	<path id="cap" d="M24,0 L24,1 L32,1 L32,6 L20,6 L20,7 L33,7 L33,0 Z" />
</g>

gifspkr
</svg>